name rise32.9588peak41.5061fall63.4684.mot
datacolumns 19
datarows 14
range 8.05000200000000 8.07163800000000
endheader
time	ground_force1_vx	ground_force1_vy	ground_force1_vz	ground_force1_px	ground_force1_py	ground_force1_pz	ground_force2_vx	ground_force2_vy	ground_force2_vz	ground_force2_px	ground_force2_py	ground_force2_pz	ground_torque1_x	ground_torque1_y	ground_torque1_z	ground_torque2_x	ground_torque2_y	ground_torque2_z	
8.05000200000000	-8.03971900000000	42.48148900000000	-11.78125300000000	0.26734000000000	0.00000000000000	0.06411100000000	-45.20351900000000	752.76984200000004	-45.52152600000000	0.10492500000000	0.00000000000000	-0.08943100000000	0.00000000000000	-7.09747200000000	0.00000000000000	0.00000000000000	-15.91937000000000	0.00000000000000	
8.05164600000000	-8.69594100000000	50.09684000000000	-13.20241700000000	0.27187800000000	0.00000000000000	0.06555900000000	-45.65383100000000	748.29730099999995	-45.04025500000000	0.10426500000000	0.00000000000000	-0.08940600000000	0.00000000000000	-8.03011200000000	0.00000000000000	0.00000000000000	-15.88296500000000	0.00000000000000	
8.05330200000000	-9.16881200000000	57.89317900000000	-14.47903900000000	0.27606600000000	0.00000000000000	0.06684200000000	-46.13459000000000	743.70154400000001	-44.53740000000000	0.10359700000000	0.00000000000000	-0.08937600000000	0.00000000000000	-8.89104700000000	0.00000000000000	0.00000000000000	-15.85123700000000	0.00000000000000	
8.05496700000000	-9.43681400000000	65.77859300000000	-15.58058500000000	0.27996400000000	0.00000000000000	0.06798600000000	-46.64458600000000	738.98113499999999	-44.01269600000000	0.10292300000000	0.00000000000000	-0.08934200000000	0.00000000000000	-9.66045300000000	0.00000000000000	0.00000000000000	-15.82394200000000	0.00000000000000	
8.05663900000000	-9.48835000000000	73.68228100000000	-16.48744800000000	0.28362100000000	0.00000000000000	0.06901400000000	-47.18243100000000	734.13457800000003	-43.46590400000000	0.10224400000000	0.00000000000000	-0.08930400000000	0.00000000000000	-10.32483500000000	0.00000000000000	0.00000000000000	-15.80080700000000	0.00000000000000	
8.05830300000000	-9.32145000000000	81.55700899999999	-17.19101200000000	0.28707300000000	0.00000000000000	0.06994200000000	-47.74656400000000	729.16032800000005	-42.89681600000000	0.10156100000000	0.00000000000000	-0.08926000000000	0.00000000000000	-10.87721500000000	0.00000000000000	0.00000000000000	-15.78152400000000	0.00000000000000	
8.05997300000000	-8.94275400000000	89.37920400000000	-17.69280000000000	0.29035000000000	0.00000000000000	0.07078500000000	-48.33525100000000	724.05680500000005	-42.30525900000000	0.10087500000000	0.00000000000000	-0.08921100000000	0.00000000000000	-11.31675900000000	0.00000000000000	0.00000000000000	-15.76575400000000	0.00000000000000	
8.06164000000000	-8.36594700000000	97.14708100000000	-18.00294700000000	0.29347400000000	0.00000000000000	0.07155300000000	-48.94659600000000	718.82240600000000	-41.69109600000000	0.10018800000000	0.00000000000000	-0.08915600000000	0.00000000000000	-11.64797200000000	0.00000000000000	0.00000000000000	-15.75313000000000	0.00000000000000	
8.06330400000000	-7.60989100000000	104.87728700000000	-18.13821700000000	0.29646500000000	0.00000000000000	0.07225600000000	-49.57854000000000	713.45551999999998	-41.05422800000000	0.09950100000000	0.00000000000000	-0.08909600000000	0.00000000000000	-11.87957700000000	0.00000000000000	0.00000000000000	-15.74325200000000	0.00000000000000	
8.06496600000000	-6.69665300000000	112.60060700000000	-18.11982900000000	0.29933900000000	0.00000000000000	0.07290200000000	-50.22886700000000	707.95454099999995	-40.39460400000000	0.09881600000000	0.00000000000000	-0.08903000000000	0.00000000000000	-12.02325000000000	0.00000000000000	0.00000000000000	-15.73569600000000	0.00000000000000	
8.06664000000000	-5.64960900000000	120.35724800000000	-17.97128500000000	0.30210700000000	0.00000000000000	0.07349700000000	-50.89521700000000	702.31788900000004	-39.71221500000000	0.09813500000000	0.00000000000000	-0.08895700000000	0.00000000000000	-12.09232200000000	0.00000000000000	0.00000000000000	-15.73000800000000	0.00000000000000	
8.06829900000000	-4.49176300000000	128.19216000000000	-17.71639400000000	0.30478000000000	0.00000000000000	0.07404700000000	-51.57508700000000	696.54402600000003	-39.00710200000000	0.09745800000000	0.00000000000000	-0.08887800000000	0.00000000000000	-12.10056800000000	0.00000000000000	0.00000000000000	-15.72571100000000	0.00000000000000	
8.06996700000000	-3.24438300000000	136.15075500000000	-17.37760100000000	0.30736700000000	0.00000000000000	0.07455700000000	-52.26584100000000	690.63147400000003	-38.27935700000000	0.09678900000000	0.00000000000000	-0.08879200000000	0.00000000000000	-12.06116000000000	0.00000000000000	0.00000000000000	-15.72230400000000	0.00000000000000	
8.07163800000000	-1.92600100000000	144.27529799999999	-16.97471200000000	0.30987300000000	0.00000000000000	0.07503000000000	-52.96472000000000	684.57883200000003	-37.52912500000000	0.09612700000000	0.00000000000000	-0.08869900000000	0.00000000000000	-11.98584400000000	0.00000000000000	0.00000000000000	-15.71926200000000	0.00000000000000	
